<svg width="1200" height="720" viewBox="0 0 1200 720" fill="none" xmlns="http://www.w3.org/2000/svg">
  <rect width="1200" height="720" rx="36" fill="#0d1726"/>
  <rect x="72" y="72" width="1056" height="576" rx="24" fill="#13243a"/>
  <rect x="124" y="128" width="272" height="32" rx="16" fill="#8bd3dd"/>
  <rect x="124" y="188" width="416" height="72" rx="18" fill="#f6f1d1"/>
  <rect x="124" y="296" width="516" height="18" rx="9" fill="#d8eefe" fill-opacity=".72"/>
  <rect x="124" y="334" width="438" height="18" rx="9" fill="#d8eefe" fill-opacity=".52"/>
  <rect x="124" y="396" width="148" height="48" rx="24" fill="#faae2b"/>
  <rect x="700" y="128" width="328" height="396" rx="30" fill="#0f1f33"/>
  <circle cx="864" cy="266" r="86" fill="#8bd3dd"/>
  <path d="M704 524c30-106 92-158 160-158s130 52 160 158" fill="#f6f1d1"/>
  <rect x="124" y="540" width="904" height="32" rx="16" fill="#8bd3dd" fill-opacity=".22"/>
  <rect x="124" y="592" width="696" height="24" rx="12" fill="#faae2b" fill-opacity=".28"/>
</svg>
